<svg version="1.1" xmlns="http://www.w3.org/2000/svg" xmlns:xlink="http://www.w3.org/1999/xlink" width="48" height="48"><defs><linearGradient x1="13.2773" y1="14.74925" x2="38.25821" y2="36.78627" gradientUnits="userSpaceOnUse" id="color-1"><stop offset="0.24" stop-color="#000000" stop-opacity="0.23"></stop><stop offset="1" stop-color="#000000" stop-opacity="0"></stop></linearGradient><filter id="dropshadow-base"><feColorMatrix type="matrix" values="0 0 0 0 0  0 0 0 0 0  0 0 0 0 0  0 0 0 .8 0"></feColorMatrix> <feOffset dx="0" dy="1"></feOffset> <feGaussianBlur stdDeviation="1"></feGaussianBlur> <feComposite in="SourceGraphic"></feComposite></filter><filter id="dropshadow-banner" x="-10%" y="-10%" width="120%" height="130%"><feColorMatrix type="matrix" values="0 0 0 0 0  0 0 0 0 0  0 0 0 0 0  0 0 0 .4 0"></feColorMatrix> <feOffset dx="0" dy="1"></feOffset> <feGaussianBlur stdDeviation="0.5"></feGaussianBlur> <feComposite in="SourceGraphic"></feComposite></filter></defs><g fill="none" fill-rule="nonzero" stroke="none" stroke-width="none" stroke-linecap="butt" stroke-linejoin="miter" stroke-miterlimit="10" stroke-dasharray="" stroke-dashoffset="0" font-family="none" font-weight="none" font-size="none" text-anchor="none" style="mix-blend-mode: normal"><path d="M2,24c0,-12.15026 9.84974,-22 22,-22c12.15026,0 22,9.84974 22,22c0,12.15026 -9.84974,22 -22,22c-12.15026,0 -22,-9.84974 -22,-22z" id="base 1 5" fill="#603a75" stroke-width="1"></path><path d="M26.72644,18.69907l-0.51734,0.77424l1.32643,1.32643l2.92437,4.28907h-5.84873l-1.2914,-1.2914l-0.8629,1.2914h-4.66925c-0.53613,0 -0.97479,0.43865 -0.97479,0.97479c0,0.0926 0.01463,0.18033 0.03412,0.26319l1.89345,6.92395h11.59572c0.8968,0 1.65227,-0.60437 1.87647,-1.42807l1.84146,-6.73386l-1.43987,0l-3.53553,-3.53553l-2.08257,-3.11671c-0.10434,0.06583 -0.19679,0.15324 -0.26964,0.2625zM33.74788,21.55327c0.26807,0 0.51176,0.10966 0.68844,0.28634l3.53553,3.53553c0.17668,0.17668 0.28634,0.42038 0.28634,0.68844c0,0.0926 -0.01462,0.18033 -0.03899,0.25832l-2.4711,9.03629c-0.2242,0.8237 -0.97967,1.42807 -1.87647,1.42807h-12.67226c-0.54032,0 -1.02934,-0.21938 -1.38283,-0.57288l-3.53553,-3.53553c-0.23322,-0.23322 -0.40746,-0.52482 -0.49852,-0.85031l-2.4711,-9.03629c-0.01949,-0.08285 -0.03412,-0.17059 -0.03412,-0.26319c0,-0.53613 0.43865,-0.97479 0.97479,-0.97479h4.66925l4.26958,-6.38974c0.18521,-0.27781 0.49715,-0.41428 0.80908,-0.41428c0.25442,0 0.50884,0.08754 0.6945,0.2732l3.53553,3.53553c0.04197,0.04197 0.08043,0.08896 0.11458,0.14108l1.90716,2.85421zM22.05042,27.40202c0,-1.07715 0.87244,-1.94958 1.94958,-1.94958c0.53857,0 1.02597,0.21811 1.37872,0.57086l3.53553,3.53553c0.35275,0.35275 0.57086,0.84015 0.57086,1.37872c0,1.07715 -0.87244,1.94958 -1.94958,1.94958c-0.53857,0 -1.02597,-0.21811 -1.37872,-0.57086l-3.53553,-3.53553c-0.35275,-0.35275 -0.57086,-0.84015 -0.57086,-1.37872z" fill="url(#color-1)" stroke-width="1"></path><path d="M29.07865,21.55328l-4.26958,-6.38974c-0.18521,-0.28269 -0.49714,-0.41429 -0.80908,-0.41429c-0.31193,0 -0.62387,0.13647 -0.80908,0.41429l-4.26958,6.38974h-4.66924c-0.53613,0 -0.97479,0.43866 -0.97479,0.97479c0,0.0926 0.01462,0.18034 0.03412,0.26319l2.47109,9.0363c0.22908,0.81882 0.98454,1.42319 1.88134,1.42319h12.67226c0.89681,0 1.65227,-0.60437 1.87647,-1.42807l2.47109,-9.0363c0.02437,-0.07798 0.03899,-0.16571 0.03899,-0.25832c0,-0.53613 -0.43866,-0.97479 -0.97479,-0.97479zM21.07563,21.55328l2.92437,-4.28907l2.92437,4.28907zM24,29.35159c-1.07714,0 -1.94958,-0.87244 -1.94958,-1.94958c0,-1.07714 0.87244,-1.94958 1.94958,-1.94958c1.07714,0 1.94958,0.87244 1.94958,1.94958c0,1.07714 -0.87244,1.94958 -1.94958,1.94958z" fill="none" stroke-width="0"></path><path d="M33.74789,21.55328c0.53613,0 0.97479,0.43866 0.97479,0.97479c0,0.0926 -0.01462,0.18034 -0.03899,0.25832l-2.47109,9.0363c-0.2242,0.8237 -0.97966,1.42807 -1.87647,1.42807h-12.67226c-0.89681,0 -1.65227,-0.60437 -1.88134,-1.42319l-2.47109,-9.0363c-0.0195,-0.08286 -0.03412,-0.17059 -0.03412,-0.26319c0,-0.53613 0.43866,-0.97479 0.97479,-0.97479h4.66924l4.26958,-6.38974c0.18521,-0.27781 0.49714,-0.41429 0.80908,-0.41429c0.31193,0 0.62387,0.1316 0.80908,0.41429l4.26958,6.38974zM26.92437,21.55328l-2.92437,-4.28907l-2.92437,4.28907zM25.94958,27.40202c0,-1.07714 -0.87244,-1.94958 -1.94958,-1.94958c-1.07714,0 -1.94958,0.87244 -1.94958,1.94958c0,1.07714 0.87244,1.94958 1.94958,1.94958c1.07714,0 1.94958,-0.87244 1.94958,-1.94958z" fill-opacity="0.91" fill="#fafffe" stroke-width="0"></path><path d="M2,24c0,-12.15026 9.84974,-22 22,-22c12.15026,0 22,9.84974 22,22c0,12.15026 -9.84974,22 -22,22c-12.15026,0 -22,-9.84974 -22,-22z" id="base 1 1 1" fill="none" stroke-width="1"></path><g fill="#000000" stroke-width="1" font-family="Roboto, sans-serif" font-weight="normal" font-size="14" text-anchor="start"></g><rect x="2" y="2" width="44" height="22" fill="none" stroke-width="1"></rect><path d="M2,24v-22h44v22z" fill="none" stroke-width="1"></path><path d="M2,24v-22h44v22z" fill="none" stroke-width="1"></path><path d="M2,24v-22h44v22z" fill="none" stroke-width="1"></path><path d="M2,24v-22h44v22z" fill="none" stroke-width="1"></path></g></svg>